<?xml version="1.0" standalone="no"?>
<!DOCTYPE svg PUBLIC "-//W3C//DTD SVG 20010904//EN"
 "http://www.w3.org/TR/2001/REC-SVG-20010904/DTD/svg10.dtd">
<svg version="1.0" xmlns="http://www.w3.org/2000/svg"
 width="421.000000pt" height="74.000000pt" viewBox="0 0 421.000000 74.000000"
 preserveAspectRatio="xMidYMid meet">
<metadata>
Created by potrace 1.16, written by Peter Selinger 2001-2019
</metadata>
<g transform="translate(0.000000,74.000000) scale(0.100000,-0.100000)"
fill="#999" stroke="none">
<path d="M399 683 c-142 -47 -234 -199 -164 -268 30 -30 45 -31 79 -4 l26 21
-20 25 c-46 59 -11 145 75 184 63 29 165 19 165 -16 0 -25 -112 -233 -155
-287 -60 -77 -112 -110 -178 -115 -38 -3 -62 1 -90 16 l-38 19 -20 -31 c-62
-103 24 -203 143 -167 50 14 135 93 189 172 48 71 119 211 150 296 24 69 34
67 44 -8 12 -89 -37 -263 -89 -320 -38 -40 -57 -76 -50 -93 9 -23 90 -60 117
-53 26 6 60 61 77 124 9 36 37 70 158 193 80 83 148 146 150 141 7 -23 -125
-331 -170 -394 l-19 -27 25 -16 c57 -38 157 -27 194 20 16 20 20 49 26 157 12
215 33 346 62 381 28 33 31 55 8 64 -19 7 -58 -29 -74 -68 -7 -16 -62 -69
-129 -123 -64 -52 -134 -113 -156 -135 -22 -22 -43 -40 -47 -41 -3 0 -6 44 -6
98 0 53 -5 117 -13 141 -33 110 -144 157 -270 114z"/>
<path d="M1748 684 c-56 -13 -117 -41 -148 -66 -55 -45 -69 -137 -27 -176 28
-27 58 -28 80 -4 13 15 14 20 2 42 -8 14 -14 41 -15 61 0 72 90 119 229 119
197 0 295 -135 151 -207 -43 -22 -138 -32 -153 -16 -7 7 44 105 71 135 13 16
13 18 -2 24 -26 10 -73 -40 -202 -213 -63 -84 -116 -153 -119 -153 -11 0 -90
43 -107 57 -19 17 -38 10 -38 -13 0 -28 39 -91 76 -124 131 -114 393 -132 521
-34 44 33 63 73 63 130 0 43 -4 51 -43 89 l-44 42 44 23 c117 62 106 198 -22
256 -97 44 -210 55 -317 28z m172 -334 c67 -34 64 -107 -5 -136 -38 -16 -195
-20 -195 -5 0 5 21 44 48 85 43 69 50 76 80 76 18 0 51 -9 72 -20z"/>
<path d="M2434 610 c-26 -10 -54 -48 -54 -71 0 -56 113 -66 157 -14 30 34 29
49 -3 74 -28 22 -64 26 -100 11z"/>
<path d="M2745 598 c-58 -30 -185 -163 -222 -233 -17 -33 -37 -82 -44 -109
-10 -41 -17 -50 -46 -63 -95 -39 -117 47 -42 161 66 99 -24 80 -108 -23 -62
-76 -86 -127 -87 -184 -1 -41 3 -52 27 -73 50 -43 152 -21 223 47 l30 29 17
-35 c40 -83 179 -85 280 -4 31 25 42 29 45 19 10 -30 60 -69 97 -76 53 -10
136 12 186 48 31 23 44 27 47 18 8 -24 49 -59 76 -66 38 -9 89 3 131 32 21 14
38 24 39 22 32 -74 125 -75 205 -3 l37 34 12 -33 c20 -53 95 -76 111 -33 4 12
12 44 16 71 5 39 14 57 42 82 36 33 141 94 162 94 7 0 -7 -27 -30 -59 -55 -79
-65 -146 -26 -185 30 -30 70 -34 121 -12 67 28 166 136 166 183 0 21 -3 20
-40 -17 -40 -40 -78 -57 -105 -46 -23 8 -18 61 12 128 32 71 25 84 -40 74 -43
-7 -159 -59 -204 -92 l-22 -16 16 42 c12 30 26 45 50 55 97 41 193 130 193
181 0 24 -39 64 -62 64 -25 0 -128 -81 -186 -146 -51 -56 -128 -165 -163 -231
-17 -32 -81 -68 -105 -59 -21 8 -17 68 11 152 14 41 25 77 25 79 0 3 -44 4
-98 2 -85 -3 -108 -8 -164 -34 -75 -35 -136 -86 -163 -137 -21 -39 -48 -54
-109 -62 -32 -5 -46 -2 -63 12 -36 32 -37 57 -2 78 48 28 144 127 167 171 39
78 37 156 -5 172 -29 11 -119 -46 -191 -121 -79 -83 -127 -161 -143 -234 -11
-46 -16 -53 -51 -67 -49 -19 -88 -19 -116 1 -37 26 -28 58 28 99 129 94 200
232 156 300 -20 30 -38 31 -91 3z m45 -86 c0 -49 -46 -120 -109 -168 -36 -28
-47 -32 -49 -20 -12 58 93 226 140 226 14 0 18 -8 18 -38z m334 -9 c0 -30 -10
-53 -37 -90 -31 -43 -101 -103 -119 -103 -10 0 11 80 33 121 27 55 89 121 108
117 12 -3 16 -15 15 -45z m369 -154 c-28 -49 -124 -150 -151 -160 -56 -21 -85
20 -58 84 23 55 111 104 194 106 l33 1 -18 -31z"/>
<path d="M1225 155 c-39 -21 -55 -42 -55 -77 0 -53 75 -62 148 -18 24 15 32
27 32 49 0 54 -63 77 -125 46z"/>
</g>
</svg>
